# xmcd
#
# Track frame offsets:
#	150
#	15245
#	26157
#	38802
#	47607
#	59742
#	72507
#	81560
#	91042
#	105440
#
# Disc length: 1543 seconds
#
# Revision: 0
# Processed by: cddbd v1.5.1PL2 Copyright (c) Steve Scherf et al.
# Submitted via: EasyCDDAExtractor 8.2.2.1
#
DISCID=7c06050a
DTITLE=Tex Ritter - Inducted Into The Hall Of Fame 1964
DYEAR=1999
DGENRE=
TTITLE0=I Dreamed Of A Hilly Billy Heaven
TTITLE1=Green Grow The Lilacs
TTITLE2=High Noon
TTITLE3=Keeper Of The Keys
TTITLE4=Gallow's Pole
TTITLE5=Saginaw Michigan
TTITLE6=Cielito Lindo
TTITLE7=Froggy Went A Courtin'
TTITLE8=Conversation With A Gun
TTITLE9=Boll Weevil
EXTD=
EXTT0=
EXTT1=
EXTT2=
EXTT3=
EXTT4=
EXTT5=
EXTT6=
EXTT7=
EXTT8=
EXTT9=
PLAYORDER=
